<svg xmlns="http://www.w3.org/2000/svg" width="65.332" height="85.244">
    <defs>
        <style>
            .cls-2{fill:#fff}
        </style>
    </defs>
    <g id="그룹_2175" data-name="그룹 2175" transform="translate(-646.486 -650.509)">
        <path id="패스_1090" data-name="패스 1090" d="M224.264 371.1c-2.64-11.951-9.6-20.32-21.3-24.093-11.862-3.825-22.666-1.285-31.729 7.275a31.215 31.215 0 0 0-3.941 40.728q10.646 15.237 21.274 30.487c2.764 3.961 6.473 3.966 9.232.011 7.15-10.251 14.262-20.529 21.47-30.739 3.788-5.363 5.467-11.32 5.575-18.584a41.054 41.054 0 0 0-.581-5.085z" transform="translate(485.977 306.284)" style="fill:#ffc400;stroke:#fa0;stroke-width:2px"/>
        <g id="그룹_2024" data-name="그룹 2024" transform="translate(658 665.967)">
            <path id="패스_1067" data-name="패스 1067" class="cls-2" d="M966.7 1064.824a16.134 16.134 0 0 1 8.776 5.436 16.376 16.376 0 0 1 3.267 5.849.925.925 0 0 0 .7.531c2.8-.069 4.515 2.243 3.73 5.079a3.212 3.212 0 0 1-3.383 2.341c-.723-.035-.942.245-1.172.911a16.184 16.184 0 0 1-7.014 8.849c-6.233 3.735-12.606 3.73-18.8-.093a15.776 15.776 0 0 1-6.976-9.1c-.213-.707-.69-.539-1.143-.542a3.691 3.691 0 0 1-3.242-5.3 3.284 3.284 0 0 1 3.344-2.151c.539.01.832-.071 1.04-.686a17.092 17.092 0 0 1 9.575-10.424 16.113 16.113 0 0 1 6.749-1.289c1.465 0 2.989 1.641 3.41 3.655a3.482 3.482 0 0 1-1.781 3.671 1.567 1.567 0 0 1-2.131-.841 1.714 1.714 0 0 1 .405-1.261c.456-.527.641-.988.209-1.593-.42-.588-.9-.478-1.419-.148a3.317 3.317 0 0 0-.1 5.292c2.55 2.238 5.933-.027 6.713-2.828a6.1 6.1 0 0 0-.336-4.314c-.13-.268-.228-.549-.421-1.044zm-4.5 27.216a6.826 6.826 0 0 0 7-6.43c.123-1.185-.358-1.682-1.425-1.335a17.409 17.409 0 0 1-11.066 0c-1.032-.337-1.562.2-1.443 1.349a6.852 6.852 0 0 0 6.934 6.416zm5.2-12.045a1.583 1.583 0 1 0-3.163-.038 1.585 1.585 0 1 0 3.163.038zm-7.14.522a1.515 1.515 0 0 0-1.483-1.694 1.479 1.479 0 0 0-1.59 1.576 1.542 1.542 0 1 0 3.074.119z" transform="translate(-941.104 -1064.232)"/>
            <path id="패스_1068" data-name="패스 1068" class="cls-2" d="M1039.4 1185.327h-4.078a2.041 2.041 0 0 1 1.874-2.253c1.204-.074 2.093.812 2.204 2.253z" transform="translate(-1016.232 -1158.995)"/>
        </g>
    </g>
</svg>
