<svg xmlns="http://www.w3.org/2000/svg" width="65.332" height="85.244">
    <g data-name="그룹 2115">
        <g data-name="그룹 2113">
            <path data-name="패스 1096" d="M224.264 371.1c-2.64-11.951-9.6-20.32-21.3-24.093-11.862-3.825-22.666-1.285-31.729 7.275a31.215 31.215 0 0 0-3.941 40.728q10.646 15.237 21.274 30.487c2.764 3.961 6.473 3.966 9.232.011 7.15-10.251 14.262-20.529 21.47-30.739 3.788-5.363 5.467-11.32 5.575-18.584a41.054 41.054 0 0 0-.581-5.085z" transform="translate(-160.51 -344.224)" style="fill:#57e;stroke:#163fcc;stroke-width:2px"/>
            <path data-name="패스 1091" d="M1250.19 221.813c-.22-3.414-3.339-6.591-7.508-4.709-.177.08-.356.154-.574.248a3.045 3.045 0 0 1-.044-.485 2.376 2.376 0 0 0-1.6-2.513 14.056 14.056 0 0 0-2.72-.97 57.112 57.112 0 0 0-22.669-.173 18.868 18.868 0 0 0-3.905 1.369 2.078 2.078 0 0 0-1.214 2.115c.037 3.04.008 6.081.032 9.121a14.575 14.575 0 0 0 10.79 13.966 25.206 25.206 0 0 0 6.362.466 14.417 14.417 0 0 0 12.073-5.861 1.443 1.443 0 0 1 .664-.466 15.5 15.5 0 0 0 9.4-8.153 7.471 7.471 0 0 0 .913-3.955zm-34.662-4.117a56.52 56.52 0 0 1 20.859.016 56.326 56.326 0 0 1-20.859-.012zm31.585 5.078c-.749 3.175-2.835 5.359-5.534 7.061.76-2.782.421-5.593.514-8.377a1.1 1.1 0 0 1 .413-.767 8.986 8.986 0 0 1 1.849-.994 1.822 1.822 0 0 1 2.47 1.094 3.621 3.621 0 0 1 .288 1.983z" transform="translate(-1195.409 -194.493)" style="fill:#fff"/>
        </g>
    </g>
</svg>
