<svg xmlns="http://www.w3.org/2000/svg" width="65.332" height="85.244">
    <g data-name="그룹 2114">
        <path data-name="패스 1090" d="M224.264 371.1c-2.64-11.951-9.6-20.32-21.3-24.093-11.862-3.825-22.666-1.285-31.729 7.275a31.215 31.215 0 0 0-3.941 40.728q10.646 15.237 21.274 30.487c2.764 3.961 6.473 3.966 9.232.011 7.15-10.251 14.262-20.529 21.47-30.739 3.788-5.363 5.467-11.32 5.575-18.584a41.054 41.054 0 0 0-.581-5.085z" transform="translate(-160.509 -344.225)" style="fill:#ff8d03;stroke:#ff6f00;stroke-width:2px"/>
        <path data-name="패스 1098" d="m1170.438 809.819-2.271-.01.163 3.953h-26.947v-5.5c3.411-.537 5.4-2.537 5.424-5.506a5.58 5.58 0 0 0-5.5-5.692v-5.35h27.031l-.184 3.822 2.126-.015-.185-3.936h11.727v5.493c-3.5.565-5.423 2.542-5.419 5.677 0 2.972 2.016 4.983 5.55 5.526.006.137.017.279.017.421 0 1.684.007 3.369.009 4.927l-11.681-.005c.038-1.079.087-2.406.14-3.805zm-12.927-14.227c-.6 1.511-1.14 2.769-1.6 4.053a.905.905 0 0 1-.978.695c-1.439.05-2.875.175-4.525.284 1.271 1.019 2.338 1.918 3.456 2.75a.9.9 0 0 1 .412 1.134c-.394 1.36-.733 2.737-1.132 4.252a25.867 25.867 0 0 0 2.717-1.721 2.221 2.221 0 0 1 3.266-.037 22.159 22.159 0 0 0 2.787 1.717c-.4-1.526-.722-2.824-1.091-4.108a.982.982 0 0 1 .4-1.282c1.112-.8 2.139-1.724 3.37-2.736-1.626-.1-3.013-.219-4.4-.247a1 1 0 0 1-1.051-.76c-.491-1.266-1.025-2.514-1.632-3.994zm10.813 5.967 1.851.065.025-4-1.878.032.001 3.903zm-.085 6.093 1.892.068.069-3.964-1.922-.038-.04 3.935z" transform="translate(-1128.968 -771.122)" style="fill:#fff"/>
    </g>
</svg>
