<svg xmlns="http://www.w3.org/2000/svg" width="65.332" height="85.244">
    <g data-name="그룹 2105">
        <path data-name="패스 1097" d="M224.264 371.1c-2.64-11.951-9.6-20.32-21.3-24.093-11.862-3.825-22.666-1.285-31.729 7.275a31.215 31.215 0 0 0-3.941 40.728q10.646 15.237 21.274 30.487c2.764 3.961 6.473 3.966 9.232.011 7.15-10.251 14.262-20.529 21.47-30.739 3.788-5.363 5.467-11.32 5.575-18.584a41.054 41.054 0 0 0-.581-5.085z" transform="translate(-160.509 -344.224)" style="fill:#00b9ff;stroke:#0899cf;stroke-width:2px"/>
        <path data-name="패스 1099" d="M828.119 667.856c-1.406-1.207-2.691-2.555-4.019-3.853a2.14 2.14 0 0 1-.561-1.7c.036-1.912.013-3.825.013-5.685a6.619 6.619 0 0 1-4.985-5.13 47.411 47.411 0 0 1-.523-5.063 11.663 11.663 0 0 0-1.969-5.839 3.725 3.725 0 0 0-6.244-.009 9.149 9.149 0 0 0-1.163 2.209 20.585 20.585 0 0 0-1.034 6.607 7.421 7.421 0 0 1-5.3 7.217c0 1.972.01 3.968-.01 5.963a1.754 1.754 0 0 1-.232.984c-1.787 2.363-3.718 4.564-6.733 5.406v1.719c2.97-.433 4.906-2.388 6.991-4.428v7.862h21.214v-7.851c2.064 2.045 3.974 4.032 6.972 4.383v-1.561a11.842 11.842 0 0 1-2.417-1.231zm-17.046-25.963c.991-1.657 2.71-1.63 3.752 0a11.626 11.626 0 0 1 1.432 4.756c.13.9.155 1.812.233 2.778h-7.069c.115-2.652.279-5.236 1.652-7.534zm6.04 25.4a3.109 3.109 0 0 1-3.012 2.756 19.076 19.076 0 0 1-2.257 0 3.155 3.155 0 0 1-3.06-2.883c-.105-1.366-.022-2.747-.022-4.174h8.379c0 1.462.106 2.894-.029 4.308z" transform="translate(-780.273 -627.409)" style="fill:#fff"/>
    </g>
</svg>
