<svg xmlns="http://www.w3.org/2000/svg" width="81.041" height="106.486" viewBox="0 0 81.041 106.486">
    <g>
        <path fill="#7c1ee1"
              d="M241.826 378.326c-3.379-15.3-12.293-26.008-27.266-30.837-15.183-4.9-29.01-1.644-40.61 9.311a39.953 39.953 0 0 0-5.044 52.129q13.626 19.5 27.228 39.021c3.538 5.07 8.285 5.076 11.816.014 9.152-13.12 18.254-26.276 27.479-39.344 4.848-6.865 7-14.489 7.135-23.786a52.548 52.548 0 0 0-.738-6.508z"
              transform="translate(-192.786 -705.144) translate(31.263 359.873)"/>
        <path fill="#fff"
              d="M0 22.905Q0 12.83.008 2.755a8.342 8.342 0 0 1 .127-1.368A1.569 1.569 0 0 1 1.616.028 1.5 1.5 0 0 1 3.413.9c.255.63.687.453 1.138.355a24.93 24.93 0 0 1 11.155-.037A46.3 46.3 0 0 0 21.714 2.7a40.647 40.647 0 0 0 6.858-.193c1.3-.1 2.587-.455 3.882-.674a1.917 1.917 0 0 1 2.4 2.018q.019 9.878 0 19.755c0 1.181-.4 1.8-1.5 2-3.68.685-7.368 1.62-11.14 1.052-2.424-.365-4.8-1.038-7.188-1.641a20.027 20.027 0 0 0-9.091-.087c-2.268.468-2.266.478-2.266 2.815v8.491c0 .329.008.66-.016.987a1.829 1.829 0 0 1-1.8 1.85 1.9 1.9 0 0 1-1.82-1.752A8.342 8.342 0 0 1 0 36.236V22.905z"
              transform="translate(-192.786 -705.144) matrix(1, -0.017, 0.017, 1, 217.727, 730.908)"/>
    </g>
</svg>
