<svg xmlns="http://www.w3.org/2000/svg" width="65.332" height="85.244">
    <g data-name="그룹 2174">
        <path data-name="패스 1115" d="M224.264 371.1c-2.64-11.951-9.6-20.32-21.3-24.093-11.862-3.825-22.666-1.285-31.729 7.275a31.215 31.215 0 0 0-3.941 40.728q10.646 15.237 21.274 30.487c2.764 3.961 6.473 3.966 9.232.011 7.15-10.251 14.262-20.529 21.47-30.739 3.788-5.363 5.467-11.32 5.575-18.584a41.054 41.054 0 0 0-.581-5.085z" transform="translate(-160.509 -344.225)" style="fill:#11aa18;stroke:#0c7d11;stroke-width:2px"/>
        <path data-name="패스 1113" d="M222.747 960.212a9.559 9.559 0 0 0-10.392-3.656 10.418 10.418 0 0 0-5.343 4.212c-.194-.252-.328-.429-.466-.6-2.018-2.57-4.566-4.168-7.926-3.989a10.184 10.184 0 0 0-9.253 8.273 14.718 14.718 0 0 0 2.4 11.269c3.583 5.618 8.785 9.344 14.7 12.161a1.489 1.489 0 0 0 1.111-.035 38 38 0 0 0 10.136-6.715 22.365 22.365 0 0 0 6.193-8.779c1.509-4.215 1.573-8.315-1.16-12.141zm-8.947 14.417h-3.947c-1.01 0-1.167.162-1.168 1.2v3.9h-3.356c0-1.012-.01-2.035 0-3.057.026-2.205.015-2.047-2.006-2.035-.985.005-1.971-.006-2.956-.014-.044 0-.087-.037-.166-.073v-3.267h4.126a.889.889 0 0 0 1.006-1.031c-.016-1.337 0-2.675 0-4.071h3.356v3.82c0 1.09.186 1.279 1.274 1.282h3.841z" transform="translate(-174.333 -940.149)" style="fill:#fff"/>
    </g>
</svg>
