<svg xmlns="http://www.w3.org/2000/svg" width="65.332" height="85.244">
    <defs>
        <style>
            .cls-2{fill:#fff}
        </style>
    </defs>
    <g id="그룹_2176" data-name="그룹 2176" transform="translate(-188.356 -733.509)">
        <path id="패스_1094" data-name="패스 1094" d="M224.264 371.1c-2.64-11.951-9.6-20.32-21.3-24.093-11.862-3.825-22.666-1.285-31.729 7.275a31.215 31.215 0 0 0-3.941 40.728q10.646 15.237 21.274 30.487c2.764 3.961 6.473 3.966 9.232.011 7.15-10.251 14.262-20.529 21.47-30.739 3.788-5.363 5.467-11.32 5.575-18.584a41.054 41.054 0 0 0-.581-5.085z" transform="translate(27.847 389.284)" style="fill:#7c1ee1;stroke:#5e00c2;stroke-width:2px"/>
        <g id="그룹_2025" data-name="그룹 2025" transform="translate(208.87 747.848)">
            <path id="패스_1073" data-name="패스 1073" class="cls-2" d="M1795.316 1057.522h-7.041v-12.462h23.618v12.44h-7.072a34.66 34.66 0 0 0-.034-3.85 8.3 8.3 0 0 0-.859-3.135 4.432 4.432 0 0 0-5.257-1.86 4.577 4.577 0 0 0-3.224 4.364c-.017 1.42-.015 2.841-.026 4.262 0 .062-.052.119-.105.241zm-4.785-7.075h2.352v-2.378h-2.352zm19.073-2.352h-2.34v2.332h2.34z" transform="translate(-1788.275 -1017.002)"/>
            <path id="패스_1074" data-name="패스 1074" class="cls-2" d="M1819.2 1004.951h-12.718v-11.484h-2.047v-3.244h1.38l.252.984h1.28l.191-.977h1.356l.2.978h1.4l.173-.989h1.3l.2.981h1.347l.2-.971h1.379l.169.9h1.351l.127-.916h1.428l.22 1h1.294l.213-1h1.432v3.175l-2.128.114zm-8.16-4.531h3.788c0-1.009.05-1.942-.013-2.866a1.85 1.85 0 0 0-1.791-1.8 1.878 1.878 0 0 0-1.965 1.747c-.082.953-.016 1.918-.016 2.919z" transform="translate(-1801.075 -973.561)"/>
            <path id="패스_1075" data-name="패스 1075" class="cls-2" d="M1843.536 912.872c.67.176 1.294.342 1.918.5a2.219 2.219 0 0 0 1.407-.048c.107-.042.258-.164.26-.253.02-.85.012-1.7.012-2.483a7.03 7.03 0 0 1-1.226.1 7.452 7.452 0 0 1-1.281-.3 2.812 2.812 0 0 0-1.657-.111.493.493 0 0 0-.406.549c.022 1.508.007 3.017.013 4.526a.936.936 0 0 1-.018.192h.978z" transform="translate(-1831.265 -910.191)"/>
            <path id="패스_1076" data-name="패스 1076" class="cls-2" d="M1823.187 940.47c-.767 1.706-1.531 3.413-2.333 5.2h10.167c-.119-.291-.2-.513-.3-.73-.981-2.184-1.881-4.41-2.969-6.539a17.7 17.7 0 0 1-1.406-2.824l-.978-.091a19.432 19.432 0 0 1-1.631 3.8c-.208.381-.372.787-.55 1.184z" transform="translate(-1814.076 -930.224)"/>
        </g>
    </g>
</svg>
