<svg xmlns="http://www.w3.org/2000/svg" width="125" height="125">
    <defs>
        <filter id="타원_140" x="0" y="0" width="125" height="125" filterUnits="userSpaceOnUse">
            <feOffset/>
            <feGaussianBlur stdDeviation="7.5" result="blur"/>
            <feFlood flood-color="#707070" flood-opacity=".349"/>
            <feComposite operator="in" in2="blur"/>
            <feComposite in="SourceGraphic"/>
        </filter>
        <style>
            .cls-2{fill:#e9718d}
        </style>
    </defs>
    <g id="그룹_2173" data-name="그룹 2173" transform="translate(-1.5 -1064.5)">
        <g transform="translate(1.5 1064.5)" style="filter:url(#타원_140)">
            <g id="타원_140-2" data-name="타원 140" transform="translate(22.5 22.5)" style="fill:#fff;stroke:#dcdcdc">
                <circle cx="40" cy="40" r="40" style="stroke:none"/>
                <circle cx="40" cy="40" r="39.5" style="fill:none"/>
            </g>
        </g>
        <g id="그룹_2171" data-name="그룹 2171" transform="translate(43 1106)">
            <path id="패스_1112" data-name="패스 1112" class="cls-2" d="M-236.91 1470a20.8 20.8 0 0 1-20.864 20.754 20.853 20.853 0 0 1-20.76-20.809 20.938 20.938 0 0 1 20.851-20.815A20.852 20.852 0 0 1-236.91 1470zm-19.439 18.034c8.924-.308 16.488-8.24 16.712-16.751h-.849c-2.34 0-4.681.011-7.021-.02a1.28 1.28 0 0 1-1.377-1.287c-.021-.727.494-1.221 1.358-1.292.216-.018.434-.013.651-.013h6.515c.254 0 .508-.026.762-.04-.61-10.21-9.63-16.717-16.786-16.67v7.084a8.371 8.371 0 0 1-.059 1.3 1.252 1.252 0 0 1-1.941.842c-.6-.366-.605-.947-.608-1.528-.008-2.34 0-4.681-.006-7.022 0-.252-.027-.5-.042-.756-9.473.564-16.46 8.649-16.711 16.76.254.011.513.033.771.033 2.268 0 4.537 0 6.8.006a4.329 4.329 0 0 1 1.075.1 1.127 1.127 0 0 1 .844 1.2 1.117 1.117 0 0 1-.908 1.223 5.139 5.139 0 0 1-1.007.077c-2.268.006-4.536 0-6.8 0-.258 0-.516.021-.773.032.281 8.739 8.054 16.46 16.752 16.711v-2.585c0-1.834 0-3.667.02-5.5 0-.579.238-1.119.837-1.194a1.89 1.89 0 0 1 1.371.313 2.01 2.01 0 0 1 .37 1.325c.035 2.292.015 4.584.018 6.877 0 .259.021.517.032.773z" transform="translate(278.534 -1449.129)"/>
            <circle id="타원_141" data-name="타원 141" class="cls-2" cx="2.562" cy="2.562" r="2.562" transform="translate(18.565 18.565)"/>
        </g>
    </g>
</svg>
