<svg xmlns="http://www.w3.org/2000/svg" width="63.572" height="83.532" viewBox="0 0 63.572 83.532">
    <defs>
        <style>
            .cls-2{fill:#fff}
        </style>
    </defs>
    <g id="그룹_671" transform="translate(-409.313 -292.126)">
        <path id="패스_404" fill="#e9718d" d="M472.306 318.057c-2.65-12-9.643-20.4-21.389-24.19-11.91-3.841-22.757-1.29-31.856 7.3a31.342 31.342 0 0 0-3.957 40.892q10.69 15.3 21.359 30.609c2.775 3.977 6.5 3.982 9.269.011 7.179-10.292 14.319-20.611 21.557-30.862 3.8-5.385 5.489-11.367 5.6-18.659a41.005 41.005 0 0 0-.583-5.101z"/>
        <g id="그룹_670">
            <path id="패스_405" d="M440.989 348.75a25.464 25.464 0 1 1 .3-50.926c13.867.068 25.148 10.783 25.3 25.8.131 13.807-11.555 25.128-25.6 25.126zm-19.627-25.6a19.77 19.77 0 0 0 39.539.269 19.935 19.935 0 0 0-19.617-19.967c-11.292-.072-20.126 9.339-19.922 19.695z" class="cls-2"/>
            <path id="패스_406" d="M441.58 334.077a14.576 14.576 0 0 1-8.15-2.5 2.831 2.831 0 1 1 3.125-4.711 7.584 7.584 0 0 0 9.129-.007 2.8 2.8 0 0 1 3.983.614 2.825 2.825 0 0 1-.674 3.99 12.774 12.774 0 0 1-7.413 2.614z" class="cls-2"/>
            <path id="패스_407" d="M437.689 318.639a3.235 3.235 0 0 1-3.3 3.247 3.268 3.268 0 0 1 .05-6.536 3.22 3.22 0 0 1 3.25 3.289z" class="cls-2"/>
            <path id="패스_408" d="M447.783 321.885a3.268 3.268 0 1 1 3.288-3.286 3.29 3.29 0 0 1-3.288 3.286z" class="cls-2"/>
        </g>
    </g>
</svg>
