<svg xmlns="http://www.w3.org/2000/svg" width="67.32" height="87.198">
    <defs>
        <style>
            .cls-2{fill:#fff}
        </style>
    </defs>
    <g id="그룹_2112" data-name="그룹 2112" transform="translate(2.001 2)">
        <g id="패스_1085" data-name="패스 1085" style="fill:#ff728e">
            <path d="M193.187 429.468c-1.4 0-3.48-.59-5.443-3.401l-4.968-7.123c-5.342-7.66-10.866-15.58-16.305-23.364a32.916 32.916 0 0 1-4.893-10.57 32.329 32.329 0 0 1-.912-11.238 31.823 31.823 0 0 1 9.88-20.22c6.52-6.159 13.903-9.281 21.944-9.281 3.485 0 7.111.6 10.778 1.781 5.923 1.91 10.8 5.03 14.496 9.275 3.592 4.126 6.108 9.36 7.477 15.554.318 1.442.42 2.892.502 4.057.031.44.058.822.092 1.136l.007.061-.001.061c-.114 7.661-1.943 13.745-5.758 19.147-5.137 7.277-10.312 14.712-15.316 21.903-2.015 2.895-4.098 5.889-6.15 8.831-1.955 2.803-4.032 3.391-5.43 3.391z" style="stroke:none" transform="translate(-161.523 -345.271)"/>
            <path d="M192.49 345.27c-7.778 0-14.94 3.042-21.258 9.009-11.337 10.707-12.87 27.95-3.941 40.728 7.097 10.158 14.184 20.324 21.273 30.487 2.764 3.961 6.474 3.966 9.232.011 7.15-10.25 14.262-20.53 21.47-30.739 3.788-5.364 5.467-11.32 5.575-18.584-.128-1.183-.155-3.178-.577-5.085-2.64-11.95-9.604-20.32-21.303-24.093-3.594-1.159-7.091-1.733-10.471-1.733m-.001-2v2-2c3.59 0 7.32.616 11.085 1.83 6.1 1.966 11.127 5.186 14.944 9.57 3.703 4.253 6.294 9.634 7.7 15.995.333 1.513.438 3.004.523 4.202.03.43.056.803.088 1.1l.013.12-.001.123c-.117 7.872-2.005 14.135-5.941 19.709-5.135 7.274-10.309 14.708-15.312 21.897a9883.15 9883.15 0 0 1-6.151 8.833c-.83 1.19-1.767 2.12-2.784 2.766-1.1.698-2.266 1.052-3.466 1.052-1.201 0-2.37-.355-3.472-1.055-1.019-.647-1.958-1.58-2.79-2.774l-4.967-7.12c-5.342-7.66-10.867-15.58-16.307-23.367a33.913 33.913 0 0 1-5.04-10.889 33.326 33.326 0 0 1-.94-11.585 32.82 32.82 0 0 1 10.188-20.853c3.319-3.135 6.91-5.533 10.673-7.129a30.464 30.464 0 0 1 11.957-2.425z" style="fill:#eb5376;stroke:none" transform="translate(-161.523 -345.271)"/>
        </g>
        <g id="그룹_2020" data-name="그룹 2020" transform="translate(19.054 16.628)">
            <path id="패스_1062" data-name="패스 1062" class="cls-2" d="M676.133 125.28c.089-2.2.169-4.4.276-6.6a.792.792 0 0 0-.5-.879 6.245 6.245 0 0 1-3.591-6.253 15.525 15.525 0 0 1 2.084-7.88 8.5 8.5 0 0 1 1.611-1.907 4.024 4.024 0 0 1 5.835.42 11.932 11.932 0 0 1 3 7 16.692 16.692 0 0 1 .013 4.342 5.635 5.635 0 0 1-3.378 4.279.783.783 0 0 0-.5.882c.184 4.163.368 8.326.507 12.492a5.024 5.024 0 0 1-.292 2.093 2.72 2.72 0 0 1-3.23 1.517 2.869 2.869 0 0 1-2.126-2.9c.076-2.2.193-4.4.292-6.6z" transform="translate(-672.312 -100.695)"/>
            <path id="패스_1063" data-name="패스 1063" class="cls-2" d="M720.92 100.868h1.76l.364 10.2h1.387l.368-10.2h2.15l.339 10.2h1.412l.369-10.192h1.784c.035.687.079 1.351.1 2.016.083 2.682.175 5.364.231 8.047a5.065 5.065 0 0 1-2.64 4.769.842.842 0 0 0-.476.906c.219 5.1.439 10.2.615 15.295a2.818 2.818 0 0 1-3.843 2.877 2.722 2.722 0 0 1-1.786-2.686c.1-3.281.24-6.56.366-9.839.073-1.891.137-3.782.235-5.672a.855.855 0 0 0-.5-.9 5.117 5.117 0 0 1-2.633-4.721c.041-3.209.22-6.416.342-9.624.01-.144.036-.283.056-.476z" transform="translate(-705.613 -100.812)"/>
        </g>
    </g>
</svg>
